HIERARCHY
ROOT Hips
{
  OFFSET 5.84602e-005 68.8428 3.50346
  CHANNELS 6 Xposition Yposition Zposition Zrotation Xrotation Yrotation
  JOINT Spine
  {
    OFFSET 0 8.597 -4.6522
    CHANNELS 3 Zrotation Xrotation Yrotation
    JOINT Spine1
    {
      OFFSET 0 7.8454 0.4098
      CHANNELS 3 Zrotation Xrotation Yrotation
      JOINT Spine2
      {
        OFFSET 0 9.7078 -2.1609
        CHANNELS 3 Zrotation Xrotation Yrotation
        JOINT Neck
        {
          OFFSET 0 21.8761 -0.4549
          CHANNELS 3 Zrotation Xrotation Yrotation
          JOINT Head
          {
            OFFSET 0 12.3537 3.3602
            CHANNELS 3 Zrotation Xrotation Yrotation
            End Site
            {
              OFFSET 0.0001 18.9506 0.5657
            }
          }
        }
        JOINT LeftShoulder
        {
          OFFSET 2.2086 21.1115 7.2329
          CHANNELS 3 Zrotation Xrotation Yrotation
          JOINT LeftArm
          {
            OFFSET 13.1193 3.0282 -4.8998
            CHANNELS 3 Zrotation Xrotation Yrotation
            JOINT LeftForeArm
            {
              OFFSET 27.4081 -0.0973053 -0.2375
              CHANNELS 3 Zrotation Xrotation Yrotation
              JOINT LeftHand
              {
                OFFSET 22.8641 0.0662994 -0.1369
                CHANNELS 3 Zrotation Xrotation Yrotation
                JOINT LeftHandIndex1
                {
                  OFFSET 8.8614 0.775009 2.4612
                  CHANNELS 3 Zrotation Xrotation Yrotation
                  JOINT LeftHandIndex2
                  {
                    OFFSET 3.3146 -0.808304 0.5841
                    CHANNELS 3 Zrotation Xrotation Yrotation
                    JOINT LeftHandIndex3
                    {
                      OFFSET 2.2628 -0.552002 0.3989
                      CHANNELS 3 Zrotation Xrotation Yrotation
                      End Site
                      {
                        OFFSET 1.6102 -0.4807 0.2612
                      }
                    }
                  }
                }
                JOINT LeftHandMiddle1
                {
                  OFFSET 8.9937 0.895004 0.2143
                  CHANNELS 3 Zrotation Xrotation Yrotation
                  JOINT LeftHandMiddle2
                  {
                    OFFSET 4.0984 0.0113983 -0.0242
                    CHANNELS 3 Zrotation Xrotation Yrotation
                    JOINT LeftHandMiddle3
                    {
                      OFFSET 2.2716 0.00689697 -0.0138001
                      CHANNELS 3 Zrotation Xrotation Yrotation
                      End Site
                      {
                        OFFSET 2.0404 -0.1441 0.0027
                      }
                    }
                  }
                }
                JOINT LeftHandRing1
                {
                  OFFSET 8.5234 0.597198 -2.0164
                  CHANNELS 3 Zrotation Xrotation Yrotation
                  JOINT LeftHandRing2
                  {
                    OFFSET 3.7188 -0.188293 -0.2328
                    CHANNELS 3 Zrotation Xrotation Yrotation
                    JOINT LeftHandRing3
                    {
                      OFFSET 2.1191 -0.106598 -0.1332
                      CHANNELS 3 Zrotation Xrotation Yrotation
                      End Site
                      {
                        OFFSET 1.8737 -0.2304 -0.0886
                      }
                    }
                  }
                }
                JOINT LeftHandPinky1
                {
                  OFFSET 7.9094 -0.601089 -3.4825
                  CHANNELS 3 Zrotation Xrotation Yrotation
                  JOINT LeftHandPinky2
                  {
                    OFFSET 2.2874 -0.477005 -0.6314
                    CHANNELS 3 Zrotation Xrotation Yrotation
                    JOINT LeftHandPinky3
                    {
                      OFFSET 1.6774 -0.349396 -0.4633
                      CHANNELS 3 Zrotation Xrotation Yrotation
                      End Site
                      {
                        OFFSET 1.4888 -0.4091 -0.3416
                      }
                    }
                  }
                }
                JOINT LeftHandThumb1
                {
                  OFFSET 1.833 -1.3875 1.3896
                  CHANNELS 3 Zrotation Xrotation Yrotation
                  JOINT LeftHandThumb2
                  {
                    OFFSET 3.4129 -1.121 2.5732
                    CHANNELS 3 Zrotation Xrotation Yrotation
                    JOINT LeftHandThumb3
                    {
                      OFFSET 2.2474 -0.804199 1.6192
                      CHANNELS 3 Zrotation Xrotation Yrotation
                      End Site
                      {
                        OFFSET 1.6527 -0.5689 1.1317
                      }
                    }
                  }
                }
              }
            }
          }
        }
        JOINT RightShoulder
        {
          OFFSET -2.2086 21.1115 7.2329
          CHANNELS 3 Zrotation Xrotation Yrotation
          JOINT RightArm
          {
            OFFSET -13.1216 3.0287 -4.9007
            CHANNELS 3 Zrotation Xrotation Yrotation
            JOINT RightForeArm
            {
              OFFSET -27.4081 -0.0973053 -0.2375
              CHANNELS 3 Zrotation Xrotation Yrotation
              JOINT RightHand
              {
                OFFSET -22.8641 0.0664063 -0.1369
                CHANNELS 3 Zrotation Xrotation Yrotation
                JOINT RightHandIndex1
                {
                  OFFSET -8.8614 0.774994 2.4612
                  CHANNELS 3 Zrotation Xrotation Yrotation
                  JOINT RightHandIndex2
                  {
                    OFFSET -3.3146 -0.808304 0.5841
                    CHANNELS 3 Zrotation Xrotation Yrotation
                    JOINT RightHandIndex3
                    {
                      OFFSET -2.2628 -0.552002 0.3989
                      CHANNELS 3 Zrotation Xrotation Yrotation
                      End Site
                      {
                        OFFSET -1.6102 -0.4807 0.2612
                      }
                    }
                  }
                }
                JOINT RightHandMiddle1
                {
                  OFFSET -8.9937 0.894989 0.2143
                  CHANNELS 3 Zrotation Xrotation Yrotation
                  JOINT RightHandMiddle2
                  {
                    OFFSET -4.0984 0.0113983 -0.0242
                    CHANNELS 3 Zrotation Xrotation Yrotation
                    JOINT RightHandMiddle3
                    {
                      OFFSET -2.2716 0.00691223 -0.0138001
                      CHANNELS 3 Zrotation Xrotation Yrotation
                      End Site
                      {
                        OFFSET -2.0404 -0.1441 0.0027
                      }
                    }
                  }
                }
                JOINT RightHandRing1
                {
                  OFFSET -8.5234 0.597198 -2.0164
                  CHANNELS 3 Zrotation Xrotation Yrotation
                  JOINT RightHandRing2
                  {
                    OFFSET -3.7188 -0.188309 -0.2328
                    CHANNELS 3 Zrotation Xrotation Yrotation
                    JOINT RightHandRing3
                    {
                      OFFSET -2.1191 -0.106598 -0.1332
                      CHANNELS 3 Zrotation Xrotation Yrotation
                      End Site
                      {
                        OFFSET -1.8737 -0.2304 -0.0886
                      }
                    }
                  }
                }
                JOINT RightHandPinky1
                {
                  OFFSET -7.9094 -0.601105 -3.4825
                  CHANNELS 3 Zrotation Xrotation Yrotation
                  JOINT RightHandPinky2
                  {
                    OFFSET -2.2874 -0.477005 -0.6314
                    CHANNELS 3 Zrotation Xrotation Yrotation
                    JOINT RightHandPinky3
                    {
                      OFFSET -1.6774 -0.349396 -0.4633
                      CHANNELS 3 Zrotation Xrotation Yrotation
                      End Site
                      {
                        OFFSET -1.4888 -0.4091 -0.3416
                      }
                    }
                  }
                }
                JOINT RightHandThumb1
                {
                  OFFSET -1.833 -1.38751 1.3896
                  CHANNELS 3 Zrotation Xrotation Yrotation
                  JOINT RightHandThumb2
                  {
                    OFFSET -3.41299 -1.12099 2.5732
                    CHANNELS 3 Zrotation Xrotation Yrotation
                    JOINT RightHandThumb3
                    {
                      OFFSET -2.24741 -0.804108 1.6192
                      CHANNELS 3 Zrotation Xrotation Yrotation
                      End Site
                      {
                        OFFSET -1.6527 -0.5689 1.1317
                      }
                    }
                  }
                }
              }
            }
          }
        }
      }
    }
  }
  JOINT RightUpLeg
  {
    OFFSET -9.1966 3.8861 -0.7581
    CHANNELS 3 Zrotation Xrotation Yrotation
    JOINT RightLeg
    {
      OFFSET -0.7359 -41.0265 0
      CHANNELS 3 Zrotation Xrotation Yrotation
      JOINT RightFoot
      {
        OFFSET 0 -40.2855 0
        CHANNELS 3 Zrotation Xrotation Yrotation
        JOINT RightToeBase
        {
          OFFSET 0 -5.6122 11.7359
          CHANNELS 3 Zrotation Xrotation Yrotation
          End Site
          {
            OFFSET 0 0 7.8731
          }
        }
      }
    }
  }
  JOINT LeftUpLeg
  {
    OFFSET 9.1965 3.8864 -0.7581
    CHANNELS 3 Zrotation Xrotation Yrotation
    JOINT LeftLeg
    {
      OFFSET 0.7359 -41.0268 0
      CHANNELS 3 Zrotation Xrotation Yrotation
      JOINT LeftFoot
      {
        OFFSET 0 -40.2855 0
        CHANNELS 3 Zrotation Xrotation Yrotation
        JOINT LeftToeBase
        {
          OFFSET 0 -5.6122 11.7359
          CHANNELS 3 Zrotation Xrotation Yrotation
          End Site
          {
            OFFSET 0 0 7.8731
          }
        }
      }
    }
  }
}
MOTION
Frames:	6
Frame Time:	0.0333333
0.87027 34.5593 17.4193 0 23.55 -0 0.333628 2.25982 -0.501167 0.687845 4.51658 -1.01669 0.687845 4.51658 -1.01669 -2.42969e-005 1.49147 2.52437e-005 -1.68255e-007 -1.77439 2.2744e-007 -21.7986 29.9858 -5.04603 -82.0649 -51.0609 -56.4018 -90.8763 -1.60697 -14.9864 153.602 33.192 -129.406 -5.00473e-007 -3.43244e-007 -2.42459e-008 2.88799e-007 -2.90862e-007 -1.18485e-007 6.36111e-015 -2.78299e-015 1.59028e-015 -5.00473e-007 -3.43244e-007 -2.42459e-008 -0.0145712 -8.76215e-005 3.04654e-006 -3.18055e-015 -4.77083e-015 -7.95139e-016 -5.00473e-007 -3.43244e-007 -2.42459e-008 -0.0187534 -0.00117733 6.7574e-005 -3.18055e-015 -1.39149e-014 -7.95139e-016 -5.00473e-007 -3.43244e-007 -2.42459e-008 -0.0122777 -0.00324996 0.000672734 -6.36111e-015 -5.96354e-015 -0 -5.00473e-007 -3.43244e-007 -2.42459e-008 2.88799e-007 -2.90862e-007 -1.18485e-007 6.36111e-015 -2.78299e-015 1.59028e-015 20.928 27.974 5.25224 82.0501 -51.1696 56.4953 90.4862 -1.71158 15.1045 -157.963 35.0035 136.77 4.97064e-007 -3.34227e-007 2.41567e-008 2.88684e-007 2.9084e-007 -1.18836e-007 1.21382e-031 4.37326e-015 -1.59028e-015 4.97064e-007 -3.34227e-007 2.41567e-008 0.0150304 -9.06115e-005 2.12808e-006 6.36111e-015 0 1.59028e-015 4.97064e-007 -3.34227e-007 2.41567e-008 0.0189649 -0.00119155 -7.3508e-005 -9.54166e-015 -1.59028e-015 2.38542e-015 4.97064e-007 -3.34227e-007 2.41567e-008 0.0122879 -0.00325395 -0.000678462 5.13117e-031 -1.23246e-014 2.38542e-015 4.97064e-007 -3.34227e-007 2.41567e-008 2.88684e-007 2.9084e-007 -1.18836e-007 1.21382e-031 4.37326e-015 -1.59028e-015 -116.783 -64.842 -115.151 -167.316 78.0081 165.239 -2.14448 -13.6886 -7.47846 -6.13524e-007 -7.36791e-007 6.53187e-006 117.837 -65.8263 117.628 168.349 77.1274 -166.21 3.77399 -15.084 8.92588 7.77698e-008 -4.15379e-007 -1.77839e-007 
0.87028 34.5537 17.063 0 24.3395 -0 0.335771 2.06444 -0.498326 0.690184 4.12595 -1.00974 0.690184 4.12595 -1.00974 -3.58097e-006 0.420406 5.9226e-006 -3.95129e-007 -3.10917 2.81973e-007 -21.7986 29.9858 -5.04602 -82.0649 -51.0609 -56.4018 -91.1442 -1.53281 -14.9601 153.894 33.3119 -129.38 2.88896e-007 -2.90779e-007 -1.1849e-007 -3.18055e-015 -8.34896e-015 -2.38542e-015 2.88896e-007 -2.90779e-007 -1.1849e-007 2.88896e-007 -2.90779e-007 -1.1849e-007 -0.0146683 -9.10913e-005 3.28575e-006 2.88894e-007 -2.90764e-007 -1.18528e-007 2.88896e-007 -2.90779e-007 -1.1849e-007 -0.0187952 -0.00117536 5.71033e-005 2.88892e-007 -2.9076e-007 -1.18541e-007 2.88896e-007 -2.90779e-007 -1.1849e-007 -0.0123126 -0.00325844 0.000681119 2.88889e-007 -2.90768e-007 -1.1853e-007 2.88896e-007 -2.90779e-007 -1.1849e-007 -3.18055e-015 -8.34896e-015 -2.38542e-015 2.88896e-007 -2.90779e-007 -1.1849e-007 20.928 27.9741 5.2522 82.0501 -51.1696 56.4953 90.7484 -1.63875 15.0793 -158.269 35.1221 136.76 -9.54166e-015 -9.54166e-015 2.38542e-015 1.44394e-007 1.4538e-007 -5.94074e-008 -6.36111e-015 -7.95139e-016 -3.18055e-015 -9.54166e-015 -9.54166e-015 2.38542e-015 0.01499 -8.91033e-005 1.66854e-006 -6.36111e-015 -7.95139e-016 7.95139e-016 -9.54166e-015 -9.54166e-015 2.38542e-015 0.0190329 -0.00119354 -6.02221e-005 -6.36111e-015 -7.15625e-015 4.77083e-015 -9.54166e-015 -9.54166e-015 2.38542e-015 0.012295 -0.0032557 -0.000677166 9.54166e-015 5.1684e-015 -7.95139e-016 -9.54166e-015 -9.54166e-015 2.38542e-015 1.44394e-007 1.4538e-007 -5.94074e-008 -6.36111e-015 -7.95139e-016 -3.18055e-015 -119.301 -64.935 -117.413 -167.328 77.9974 165.245 -1.81918 -13.2782 -7.97339 -8.16413e-007 -2.18869e-007 -7.7968e-008 120.502 -65.886 120.039 168.359 77.1167 -166.214 3.458 -14.6601 9.40774 8.94802e-007 -1.03009e-006 -1.60032e-006 
0.870294 34.5496 16.7066 0 25.1288 -0 0.337911 1.8692 -0.495459 0.692544 3.73536 -1.00275 0.692545 3.73538 -1.00275 -2.35088e-006 -0.65114 -1.16264e-005 1.88034e-008 -4.44575 -1.77265e-007 -21.7986 29.9859 -5.046 -82.0649 -51.0609 -56.4018 -91.4122 -1.45881 -14.9333 154.186 33.432 -129.355 1.15598e-006 -1.16278e-006 -4.73983e-007 1.58947e-006 -1.59882e-006 -6.51727e-007 4.33491e-007 -4.36041e-007 -1.77744e-007 1.15598e-006 -1.16278e-006 -4.73983e-007 -0.0146512 -8.99661e-005 -6.00715e-006 4.33489e-007 -4.36019e-007 -1.778e-007 1.15598e-006 -1.16278e-006 -4.73983e-007 -0.0187262 -0.00117467 6.13905e-005 -7.46909e-008 -7.70001e-007 -1.90963e-007 1.15598e-006 -1.16278e-006 -4.73983e-007 -0.0123085 -0.00326192 0.000688626 4.33482e-007 -4.36026e-007 -1.77803e-007 1.15598e-006 -1.16278e-006 -4.73983e-007 1.58947e-006 -1.59882e-006 -6.51727e-007 4.33491e-007 -4.36041e-007 -1.77744e-007 20.9281 27.9741 5.25215 82.0501 -51.1696 56.4952 91.0106 -1.56602 15.0539 -158.575 35.2408 136.751 -1.44447e-007 -1.45339e-007 5.93966e-008 2.88893e-007 2.90678e-007 -1.18793e-007 3.18055e-015 -7.15625e-015 -0 -1.44447e-007 -1.45339e-007 5.93966e-008 0.0149969 -9.21778e-005 -1.25418e-006 4.41391e-032 1.59028e-015 -1.59028e-015 -1.44447e-007 -1.45339e-007 5.93966e-008 0.0190204 -0.0011938 -5.28235e-005 3.18055e-015 1.55052e-014 -7.15625e-015 -1.44447e-007 -1.45339e-007 5.93966e-008 0.0123125 -0.00326224 -0.000681711 -3.18055e-015 4.37326e-015 7.95139e-016 -1.44447e-007 -1.45339e-007 5.93966e-008 2.88893e-007 2.90678e-007 -1.18793e-007 3.18055e-015 -7.15625e-015 -0 -121.832 -64.9856 -119.688 -167.34 77.9866 165.252 -1.49074 -12.8708 -8.46981 -6.83266e-007 -1.8881e-006 1.50062e-006 123.174 -65.8996 122.457 168.369 77.106 -166.218 3.13887 -14.2389 9.891 -1.03521e-006 -5.98256e-007 1.65453e-008 
0.870303 34.547 16.3502 0 25.918 -0 0.340051 1.67396 -0.492583 0.694937 3.34488 -0.995738 0.694937 3.34489 -0.995738 -9.50185e-006 -1.72417 -9.8018e-006 1.20803e-007 -5.78381 2.47182e-007 -21.7986 29.9859 -5.04601 -82.0649 -51.0609 -56.4018 -91.6803 -1.38492 -14.9063 154.478 33.5522 -129.33 -1.44547e-007 1.45304e-007 5.92502e-008 3.69958e-007 4.74889e-007 6.66815e-008 -2.89094e-007 2.90608e-007 1.185e-007 -1.44547e-007 1.45304e-007 5.92502e-008 -0.0146015 -8.61338e-005 -5.92385e-007 -2.89093e-007 2.90592e-007 1.18538e-007 -1.44547e-007 1.45304e-007 5.92502e-008 -0.0187715 -0.00117445 6.1155e-005 -2.89091e-007 2.90588e-007 1.18551e-007 -1.44547e-007 1.45304e-007 5.92502e-008 -0.0122801 -0.00324713 0.000675713 -2.89088e-007 2.90597e-007 1.1854e-007 -1.44547e-007 1.45304e-007 5.92502e-008 3.69958e-007 4.74889e-007 6.66815e-008 -2.89094e-007 2.90608e-007 1.185e-007 20.9281 27.9741 5.25216 82.0501 -51.1696 56.4953 91.2728 -1.49343 15.0281 -158.882 35.3595 136.742 2.89001e-007 2.90593e-007 -1.18771e-007 2.89001e-007 2.90593e-007 -1.18771e-007 2.89001e-007 2.90593e-007 -1.18771e-007 2.89001e-007 2.90593e-007 -1.18771e-007 0.0149276 -8.98356e-005 8.55902e-006 2.89e-007 2.90577e-007 -1.18809e-007 2.89001e-007 2.90593e-007 -1.18771e-007 0.0190068 -0.00119309 -6.54492e-005 2.88998e-007 2.90573e-007 -1.18822e-007 2.89001e-007 2.90593e-007 -1.18771e-007 0.0123229 -0.00326265 -0.00067623 2.88995e-007 2.90582e-007 -1.1881e-007 2.89001e-007 2.90593e-007 -1.18771e-007 2.89001e-007 2.90593e-007 -1.18771e-007 2.89001e-007 2.90593e-007 -1.18771e-007 -124.368 -64.9935 -121.967 -167.352 77.9756 165.259 -1.15914 -12.4662 -8.96769 -1.85132e-006 3.78837e-007 -7.03052e-008 125.843 -65.8672 124.871 168.38 77.0951 -166.223 2.81664 -13.8205 10.3757 1.12352e-006 -5.84351e-007 -3.19007e-006 
0.87031 34.5459 15.994 0 26.7067 -0 0.342185 1.47875 -0.489695 0.697353 2.95448 -0.988711 0.697354 2.95449 -0.988712 -2.58762e-006 -2.79747 -2.20181e-005 2.76286e-007 -7.12295 -8.3523e-007 -21.7986 29.9859 -5.04601 -82.0649 -51.0609 -56.4018 -91.9483 -1.31118 -14.8789 154.771 33.6724 -129.306 4.33796e-007 -4.35777e-007 -1.77756e-007 1.44599e-007 -1.45259e-007 -5.92521e-008 5.78394e-007 -5.81037e-007 -2.37008e-007 4.33796e-007 -4.35777e-007 -1.77756e-007 -0.0146145 -9.07136e-005 9.24956e-006 5.78391e-007 -5.81006e-007 -2.37083e-007 4.33796e-007 -4.35777e-007 -1.77756e-007 -0.0188164 -0.00117949 5.96458e-005 5.78387e-007 -5.80998e-007 -2.3711e-007 4.33796e-007 -4.35777e-007 -1.77756e-007 -0.0122042 -0.00323064 0.000679481 5.78381e-007 -5.81015e-007 -2.37086e-007 4.33796e-007 -4.35777e-007 -1.77756e-007 1.44599e-007 -1.45259e-007 -5.92521e-008 5.78394e-007 -5.81037e-007 -2.37008e-007 20.9281 27.9741 5.25213 82.0501 -51.1696 56.4953 91.5351 -1.42096 15.0019 -159.189 35.4782 136.735 -1.44556e-007 -1.45253e-007 5.93738e-008 -1.44556e-007 -1.45253e-007 5.93738e-008 -1.44556e-007 -1.45253e-007 5.93738e-008 -1.44556e-007 -1.45253e-007 5.93738e-008 0.0149771 -9.11887e-005 -2.47245e-006 -1.44555e-007 -1.45245e-007 5.93929e-008 -1.44556e-007 -1.45253e-007 5.93738e-008 0.0190204 -0.00119228 -5.79004e-005 -1.44554e-007 -1.45243e-007 5.93994e-008 -1.44556e-007 -1.45253e-007 5.93738e-008 0.0123202 -0.0032621 -0.000688711 3.70132e-007 -4.64792e-007 6.17517e-008 -1.44556e-007 -1.45253e-007 5.93738e-008 -1.44556e-007 -1.45253e-007 5.93738e-008 -1.44556e-007 -1.45253e-007 5.93738e-008 -126.899 -64.9588 -124.241 -167.364 77.9644 165.267 -0.824454 -12.0647 -9.46705 -1.63249e-006 -4.37253e-007 -1.63859e-007 128.498 -65.7891 127.272 168.39 77.0841 -166.228 2.49131 -13.4049 10.8618 -0 -3.18055e-015 -0 
0.870318 34.5464 15.6379 0 27.4951 -0 0.344319 1.28357 -0.48681 0.699802 2.56422 -0.981697 0.699802 2.56421 -0.981697 -9.95351e-006 -3.8716 -2.92883e-006 9.82821e-008 -8.46283 -1.02879e-007 -21.7986 29.9859 -5.04601 -82.0649 -51.0609 -56.4018 -92.2163 -1.23754 -14.8512 155.064 33.7927 -129.282 -2.89302e-007 2.90427e-007 1.18507e-007 -1.44651e-007 1.45213e-007 5.92535e-008 -2.89302e-007 2.90427e-007 1.18507e-007 -2.89302e-007 2.90427e-007 1.18507e-007 -0.0145969 -9.1168e-005 -7.08234e-007 -2.893e-007 2.90412e-007 1.18544e-007 -2.89302e-007 2.90427e-007 1.18507e-007 -0.0187173 -0.00117494 6.40474e-005 -8.11396e-007 -3.01984e-008 1.2259e-007 -2.89302e-007 2.90427e-007 1.18507e-007 -0.0123411 -0.003266 0.000685364 -2.89295e-007 2.90416e-007 1.18546e-007 -2.89302e-007 2.90427e-007 1.18507e-007 -1.44651e-007 1.45213e-007 5.92535e-008 -2.89302e-007 2.90427e-007 1.18507e-007 20.9281 27.9741 5.25218 82.0501 -51.1696 56.4953 91.7973 -1.34862 14.9756 -159.497 35.5969 136.728 -1.44612e-007 -1.45209e-007 5.93614e-008 -2.89223e-007 -2.90418e-007 1.18723e-007 -1.44612e-007 -1.45209e-007 5.93614e-008 -1.44612e-007 -1.45209e-007 5.93614e-008 0.0149896 -9.14404e-005 -1.87328e-006 -1.44611e-007 -1.45201e-007 5.93805e-008 -1.44612e-007 -1.45209e-007 5.93614e-008 0.018986 -0.00118909 -5.70328e-005 -1.4461e-007 -1.45199e-007 5.9387e-008 -1.44612e-007 -1.45209e-007 5.93614e-008 0.0122749 -0.00324881 -0.000681 -1.44608e-007 -1.45204e-007 5.9381e-008 -1.44612e-007 -1.45209e-007 5.93614e-008 -2.89223e-007 -2.90418e-007 1.18723e-007 -1.44612e-007 -1.45209e-007 5.93614e-008 -129.417 -64.8817 -126.504 -167.377 77.953 165.275 -0.486719 -11.6663 -9.96784 -7.95139e-016 -1.59028e-015 -3.18055e-015 131.131 -65.6656 129.65 168.401 77.0728 -166.234 2.16295 -12.9923 11.3492 -1.97636e-006 -2.05026e-006 -1.64314e-006 
